<svg width="280" height="346" viewBox="0 0 280 346" fill="none" xmlns="http://www.w3.org/2000/svg">
<path fill-rule="evenodd" clip-rule="evenodd" d="M276.548 6.73236L231.284 0.0708775C229.945 -0.195582 228.606 0.337304 228.07 0.870223L208.787 25.9174C207.447 27.5162 207.18 29.6478 207.715 31.5131C208.251 33.3783 206.644 34.9771 204.769 34.7106L188.967 31.2466C186.557 30.7137 183.878 31.5131 182.271 33.6448L119.599 113.583C118.527 115.181 116.385 115.714 114.51 114.915L90.673 104.257C88.5303 103.191 86.1199 103.457 84.245 104.789L72.1926 113.05C70.3178 114.382 67.6395 114.648 65.4968 113.583L59.6045 110.652C55.8549 108.786 51.3018 110.918 50.2304 114.915L45.9451 133.833C44.8738 138.363 46.7486 142.893 50.7661 145.291L59.8723 150.887L89.066 168.74L103.261 177.533C107.279 179.931 112.367 179.398 115.849 176.467L139.686 155.683C141.561 154.084 144.507 153.552 146.65 154.884L153.881 158.614C156.292 159.947 159.238 159.414 161.113 157.548L173.165 146.357C175.04 144.492 177.986 144.225 180.129 145.291L198.073 153.552C200.752 154.884 203.966 154.084 205.84 151.686L214.143 141.028L277.084 60.8236C280.03 57.0932 278.155 51.4975 273.334 50.4317L259.407 47.2342C256.461 46.7012 255.121 42.9708 257.264 40.8391L278.958 13.9267C281.101 10.7292 279.762 7.26528 276.548 6.73236ZM68.9781 168.207C67.6389 167.408 66.2998 168.74 66.8354 170.072L73.5312 187.658C74.0669 188.991 74.0668 190.323 73.799 191.655L67.9067 214.571C67.6389 216.17 68.1746 217.768 69.2459 218.568L86.1193 231.624C87.7263 232.69 89.8689 232.69 91.2081 231.358L108.885 215.903C109.956 215.104 111.295 214.571 112.367 214.304L132.454 212.173C133.793 211.906 134.329 210.041 132.99 209.242L68.9781 168.207ZM59.0689 226.828C60.4081 226.295 62.0151 226.562 63.0864 227.361L81.2989 241.217C82.1024 242.016 82.6381 243.082 82.6381 244.414L81.0311 264.665C80.7633 265.731 80.4955 266.53 79.692 267.33L1.21734 345.669C0.681676 346.468 -0.389674 345.669 0.145989 344.87L21.8404 309.43C22.1082 309.164 21.8403 308.631 21.5725 308.365H20.769L13.8054 311.029C13.2697 311.029 13.0019 310.763 12.7341 310.496V309.963L42.999 235.621C43.5347 234.822 44.0704 234.022 44.8739 233.756L59.0689 226.828Z" fill="white"/>
</svg>
